<svg width="62" height="28" viewBox="0 0 62 30" fill="none" xmlns="http://www.w3.org/2000/svg">
  <!-- ROUE ARRIÈRE centrée sur (9,22) -->
  <g transform="translate(9,22)">
    <g>
      <animateTransform attributeName="transform" type="rotate" from="0" to="360" dur="0.5s" repeatCount="indefinite"/>
      <circle r="7" stroke="#3B6D11" stroke-width="2" fill="none"/>
      <line x1="0" y1="-7" x2="0" y2="7" stroke="#3B6D11" stroke-width="1.1"/>
      <line x1="-7" y1="0" x2="7" y2="0" stroke="#3B6D11" stroke-width="1.1"/>
      <line x1="-5" y1="-5" x2="5" y2="5" stroke="#3B6D11" stroke-width="1.1"/>
      <line x1="5" y1="-5" x2="-5" y2="5" stroke="#3B6D11" stroke-width="1.1"/>
    </g>
  </g>
  <!-- ROUE AVANT centrée sur (51,22) -->
  <g transform="translate(51,22)">
    <g>
      <animateTransform attributeName="transform" type="rotate" from="0" to="360" dur="0.5s" repeatCount="indefinite"/>
      <circle r="7" stroke="#3B6D11" stroke-width="2" fill="none"/>
      <line x1="0" y1="-7" x2="0" y2="7" stroke="#3B6D11" stroke-width="1.1"/>
      <line x1="-7" y1="0" x2="7" y2="0" stroke="#3B6D11" stroke-width="1.1"/>
      <line x1="-5" y1="-5" x2="5" y2="5" stroke="#3B6D11" stroke-width="1.1"/>
      <line x1="5" y1="-5" x2="-5" y2="5" stroke="#3B6D11" stroke-width="1.1"/>
    </g>
  </g>
  <!-- Caisse cargo -->
  <rect x="1" y="12" width="20" height="11" rx="2" fill="#EAF3DE" stroke="#3B6D11" stroke-width="1.5"/>
  <line x1="1" y1="18" x2="21" y2="18" stroke="#3B6D11" stroke-width="1" stroke-dasharray="2 2"/>
  <!-- Cadre -->
  <path d="M21 15 L33 15 L33 7 L41 7 L51 15" stroke="#3B6D11" stroke-width="1.8" stroke-linecap="round" stroke-linejoin="round" fill="none"/>
  <path d="M27 15 L33 7" stroke="#3B6D11" stroke-width="1.4" stroke-linecap="round"/>
  <!-- Fourche avant -->
  <path d="M51 15 L53 22" stroke="#3B6D11" stroke-width="1.6" stroke-linecap="round"/>
  <!-- Guidon -->
  <path d="M33 7 L33 3" stroke="#3B6D11" stroke-width="1.5" stroke-linecap="round"/>
  <line x1="30" y1="3" x2="36" y2="3" stroke="#3B6D11" stroke-width="2.5" stroke-linecap="round"/>
  <!-- Selle -->
  <line x1="33" y1="7" x2="28" y2="7" stroke="#3B6D11" stroke-width="2.5" stroke-linecap="round"/>
  <!-- Pédalier -->
  <circle cx="33" cy="15" r="2" fill="#3B6D11"/>
</svg>
