<svg xmlns="http://www.w3.org/2000/svg" width="1254" height="1254">
<defs>
</defs>
<path d="M0,1254 C0,1254 0,0 0,0 C0,0 1254,0 1254,0 C1254,0 1254,1254 1254,1254 C1254,1254 0,1254 0,1254 Z M133.938,593.861 C137.737,603.093 137.818,611.931 133.705,621.245 C130.147,629.3 120.657,634.711 111.817,634.677 C111.817,634.677 93.3865,634.607 93.3865,634.607 C93.3865,634.607 88.9438,634.068 88.9438,634.068 C76.3478,632.542 63.6739,631.769 51.8866,634.689 C28.4982,640.481 12.7649,659.908 12.8841,683.973 C12.9448,696.243 16.0303,707.518 24.1738,717.171 C35.1473,730.179 52.7604,734.596 70.19,732.016 C93.2459,728.604 113.783,718.313 132.992,705.185 C152.687,691.725 170.477,677.33 186.087,659.197 C186.087,659.197 207.95,633.802 207.95,633.802 C230.584,604.132 249.41,572.949 265.056,539.195 C272.18,523.827 278.495,509.39 282.32,493.248 C282.32,493.248 289.952,461.05 289.952,461.05 C291.855,453.02 291.709,445.146 292.001,437.01 C292.456,424.302 290.088,412.287 283.198,401.799 C275.048,389.394 260.787,384.029 245.851,387.011 C227.065,390.761 214.813,406.929 212.601,425.857 C212.601,425.857 212.168,448.034 212.168,448.034 C212.168,448.034 216.092,483.968 216.092,483.968 C219.015,510.738 217.558,539.656 204.245,560.989 C200.692,566.683 193.823,570.543 187.982,566.905 C182.218,563.314 178.947,556.576 176.701,550.183 C169.924,530.894 163.309,512.059 152.63,494.282 C152.63,494.282 140.863,477.019 140.863,477.019 C140.863,477.019 123.948,459.913 123.948,459.913 C110.723,448.251 93.8863,440.62 76.1032,441.716 C60.6382,442.668 46.399,449.049 36.6059,460.288 C17.6874,481.999 22.9358,516.82 46.8709,531.866 C53.0091,535.724 58.7908,538.019 65.2169,540.64 C65.2169,540.64 90.199,550.828 90.199,550.828 C109.252,560.294 125.827,574.149 133.938,593.861 Z M528.665,602.624 C534.105,600.648 539.621,598.957 544.975,595.993 C544.975,595.993 560.148,587.594 560.148,587.594 C560.148,587.594 566.285,596.661 566.285,596.661 C574.963,606.693 590.338,607.938 599.243,598.64 C608.706,588.761 594.435,575.333 594.503,551.671 C594.503,551.671 594.599,517.882 594.599,517.882 C594.599,517.882 595.583,488.026 595.583,488.026 C594.679,475.438 593.31,463.412 587.506,452.35 C578.341,434.883 561.349,425.156 542.582,421.309 C518.131,416.297 488.452,425.016 478.032,447.875 C474.176,456.334 474.249,468.581 477.593,469.772 C480.164,470.688 496.453,459.056 521.672,462.265 C539.44,464.527 549.291,480.368 543.465,487.924 C538.391,494.503 512.216,491.203 486.358,503.122 C463.316,513.743 446.228,530.868 446.863,558.028 C447.556,587.666 473.283,606.386 501.884,606.14 C511.531,606.057 519.96,605.784 528.665,602.624 Z M839.598,567.826 C841.596,562.976 843.012,557.637 844.047,552.008 C844.047,552.008 846.084,540.929 846.084,540.929 C846.084,540.929 852.587,515.732 852.587,515.732 C853.219,513.284 855.207,510.756 855.183,508.668 C855.183,508.668 862.697,495.821 862.697,495.821 C867.843,490.324 872.735,484.91 879.879,482.982 C886.229,481.267 891.472,482.129 896.622,485.66 C909.263,494.327 905.546,516.356 901.164,533.021 C901.164,533.021 894.076,559.977 894.076,559.977 C894.076,559.977 888.314,583.939 888.314,583.939 C887.177,588.664 886.969,594.201 888.553,598.546 C891.397,606.346 899.42,608.233 906.961,608.312 C914.76,608.393 922.051,606.793 925.214,598.949 C925.214,598.949 933.407,578.635 933.407,578.635 C933.407,578.635 943.029,548.031 943.029,548.031 C947.248,534.612 949.169,521.248 950.463,507.329 C953.688,472.66 938.311,440.114 903.626,435.524 C888.504,433.523 875.647,435.987 863.123,443.082 C857.942,446.017 853.486,448.813 849.041,452.921 C849.041,452.921 843.372,458.162 843.372,458.162 C835.068,439.327 818.601,425.647 798.12,424.051 C773.245,422.114 753.617,433.785 738.369,453.273 C718.725,418.234 674.557,409.942 642.912,432.229 C637.719,435.886 633.172,441.108 629.256,446.004 C622.283,454.724 618.74,464.501 615.863,474.949 C613.483,483.589 611.481,491.787 611.53,500.688 C611.53,500.688 611.716,534.09 611.716,534.09 C611.716,534.09 612.448,547.674 612.448,547.674 C612.448,547.674 613.415,558.61 613.415,558.61 C613.415,558.61 617.473,586.124 617.473,586.124 C618.892,595.744 625.22,601.836 635.111,602.166 C647.744,602.588 658.576,593.569 658.545,580.437 C658.545,580.437 658.473,550.463 658.473,550.463 C658.473,550.463 657.806,537.972 657.806,537.972 C656.738,517.934 654.934,491.717 665.956,476.913 C672.775,467.754 684.461,466.501 694.159,473.125 C706.179,481.335 709.799,509.883 709.408,527.662 C709.408,527.662 708.594,564.636 708.594,564.636 C708.594,564.636 708.19,581.843 708.19,581.843 C707.944,592.283 716.147,597.968 726.007,598.198 C737.737,598.471 746.727,591.843 747.9,579.855 C747.9,579.855 754.398,513.399 754.398,513.399 C755.505,502.078 759.061,491.523 765.386,482.429 C772.139,472.72 785.252,468.504 795.907,474.18 C806.301,479.719 808.896,496.872 807.482,509.558 C807.482,509.558 806.093,522.025 806.093,522.025 C806.093,522.025 797.379,567.99 797.379,567.99 C796.087,574.804 795.321,582.25 796.462,588.39 C798.208,597.785 806.598,601.005 814.886,601.298 C823.685,601.609 829.839,598.556 833.749,590.572 C837.181,583.567 839.23,575.654 839.598,567.826 Z M358.972,617.092 C358.972,617.092 376.014,610.893 376.014,610.893 C376.014,610.893 397.651,598.661 397.651,598.661 C406.642,612.143 417.021,618.248 432.218,614.392 C438.48,612.803 442.99,609.059 444.763,602.598 C445.177,601.088 444.319,598.537 443.056,596.985 C429.04,579.77 430.36,555.818 432.117,533.971 C432.117,533.971 433.162,520.984 433.162,520.984 C435.68,489.689 432.435,456.979 404.071,441.832 C388.387,433.456 369.893,431.246 352.706,435.588 C310.064,446.359 310.396,482.25 313.453,483.035 C318.034,484.213 336.15,472.209 359.511,475.465 C367.793,476.62 375.073,480.683 379.359,487.601 C381.576,491.179 382.29,496.919 378.798,499.764 C374.956,502.895 369.587,504.12 364.622,504.661 C344.769,506.822 325.432,512.635 308.814,523.713 C286.973,538.274 276.028,564.476 285.261,588.511 C296.36,617.403 330.892,624.883 358.972,617.092 Z M972.871,601.438 C1001.58,634.999 1052.17,635.728 1081.33,602.105 C1104.02,575.949 1109.84,538.243 1094.05,506.948 C1094.05,506.948 1091.18,501.835 1091.18,501.835 C1068.07,466.831 1020.37,459.445 987.844,485.303 C971.018,498.679 961.378,517.997 957.773,538.874 C955.712,550.811 955.56,561.371 958.919,573.135 C961.888,583.532 966.138,593.566 972.871,601.438 Z M1233.88,607.86 C1250.25,571.83 1237.88,531.162 1205.11,513.151 C1180.89,499.831 1150.23,503.046 1129.95,521.144 C1111.48,537.636 1102.65,561.934 1104.05,586.96 C1104.86,601.365 1110.31,614.497 1119.27,626.057 C1132.86,643.585 1158.14,651.66 1180.03,649.288 C1204.27,646.662 1223.93,629.767 1233.88,607.86 Z M313.995,716.586 C319.482,694.839 334.899,679.852 355.394,673.92 C353.935,670.949 350.31,670.087 347.185,669.663 C329.735,667.291 313.167,679.357 309.94,696.933 C308.684,703.778 308.623,711.815 313.995,716.586 Z M913.828,717.16 C922.447,704.389 917.814,689.785 908.819,680.138 C899.194,670.183 884.037,665.515 871.023,673.26 C892.831,679.725 907.52,695.324 913.828,717.16 Z M512.214,828.89 C514.052,829.313 519.725,833.625 530.188,836.911 C530.188,836.911 552.828,844.021 552.828,844.021 C561.101,846.619 580.868,850.725 585.207,850.251 C588.82,849.857 592.078,851.167 595.689,851.75 C596.284,850.911 597.747,850.332 598.335,852.156 C598.335,852.156 630.58,851.485 630.58,851.485 C630.58,851.485 649.389,849.183 649.389,849.183 C649.389,849.183 659.511,847.517 659.511,847.517 C659.511,847.517 685.656,840.629 685.656,840.629 C685.656,840.629 711.732,831.851 711.732,831.851 C712.269,831.67 713.197,829.647 713.696,829.872 C715.061,830.485 716.549,829.76 718.063,829.123 C746.518,817.154 771.892,800.416 796.354,781.573 C796.354,781.573 815.044,766.095 815.044,766.095 C815.044,766.095 827.993,754.087 827.993,754.087 C827.993,754.087 858.158,724.058 858.158,724.058 C858.158,724.058 878.254,703.067 878.254,703.067 C879.859,701.391 878.081,697.787 876.61,696.95 C874.834,695.94 872.569,695.462 870.007,697.083 C848.651,710.598 826.841,722.125 803.26,731.075 C686.371,775.441 554.952,778.101 437.791,736.234 C415.934,728.423 396.01,718.781 375.993,707.063 C375.993,707.063 357.627,696.311 357.627,696.311 C355.281,694.937 352.073,696.639 350.868,698.437 C349.249,700.853 350.242,703.245 352.514,705.48 C352.514,705.48 396.348,748.599 396.348,748.599 C396.348,748.599 410.574,761.738 410.574,761.738 C435.494,784.754 462.401,805.105 492.531,820.567 C499.18,823.979 505.426,827.331 512.214,828.89 Z " fill="rgb(254,254,254)"/>
<path d="M855.183,508.668 C855.207,510.756 853.219,513.284 852.587,515.732 C852.587,515.732 846.084,540.929 846.084,540.929 C846.084,540.929 844.047,552.008 844.047,552.008 C843.012,557.637 841.596,562.976 839.598,567.826 C837.678,572.486 836.255,577.191 835.358,582.121 C833.193,594.018 823.398,601.801 811.654,599.609 C807.822,598.893 805.115,597.731 801.866,595.068 C797.681,591.639 797.214,586.585 797.924,581.008 C797.924,581.008 800.655,559.557 800.655,559.557 C801.061,556.373 800.318,552.35 802.466,548.948 C803.91,546.661 808.407,519.564 809.544,508.341 C811.169,492.298 805.507,471.411 790.175,470.106 C780.149,469.253 770.349,472.313 765.235,480.157 C762.751,483.966 758.779,486.266 758.619,491.924 C758.526,495.218 755.088,498.358 754.642,501.314 C754.642,501.314 751.231,523.953 751.231,523.953 C751.231,523.953 749.426,539.353 749.426,539.353 C749.426,539.353 748.843,553.719 748.843,553.719 C748.843,553.719 745.613,583.224 745.613,583.224 C745.099,587.919 742.492,590.405 739.118,593.054 C736.164,595.372 733.867,595.907 729.89,595.546 C729.89,595.546 716.393,594.318 716.393,594.318 C712.158,590.035 708.955,585.8 710.304,579.978 C711.37,575.375 710.37,570.906 710.589,566.653 C710.589,566.653 711.389,551.123 711.389,551.123 C711.389,551.123 711.458,516.646 711.458,516.646 C711.475,508.051 710.912,500.06 706.898,492.066 C706.015,490.309 705.671,487.944 706.588,486.232 C705.73,484.091 703.015,482.752 703.018,479.876 C701.463,474.458 696.304,471.009 692.147,468.42 C688.438,469.467 686.456,466.75 682.989,467.125 C677.931,467.673 675.037,465.954 667.401,472.541 C662.078,477.132 658.262,484.896 657.234,491.808 C657.234,491.808 655.859,501.056 655.859,501.056 C654.13,512.679 654.951,525.086 655.704,537.173 C655.704,537.173 656.483,549.667 656.483,549.667 C656.862,555.745 656.746,561.685 656.163,568 C655.571,574.421 659.17,582.468 652.82,591.338 C646.579,600.057 635.673,603.102 625.894,597.006 C620.838,593.854 620.597,587.781 619.387,582.568 C618.084,576.948 616.795,571.861 616.694,566.364 C616.694,566.364 614.963,561.105 614.963,561.105 C614.963,561.105 614.608,542.706 614.608,542.706 C614.608,542.706 613.424,530.552 613.424,530.552 C612.171,517.695 613.088,491.307 615.98,481.319 C615.98,481.319 620.038,467.303 620.038,467.303 C620.739,464.883 622.921,462.796 622.879,459.959 C622.849,457.908 624.208,456.496 626.357,455.849 C625.489,451.121 633.476,442.008 636.246,440.733 C639.335,439.312 640.231,438.021 641.655,435.403 C644.007,433.097 648.02,431.106 651.198,429.231 C656.952,425.837 665.431,425.201 671.355,422.374 C671.355,422.374 690.631,423.153 690.631,423.153 C696.34,423.383 701.52,424.552 706.484,427.864 C710.17,427.278 713.376,429.11 715.979,432.016 C715.979,432.016 725.866,440.435 725.866,440.435 C727.524,441.846 730.04,442.94 730.493,445.247 C730.735,446.479 732.161,447.77 733.261,449.143 C734.583,450.793 734.87,454.261 738.053,455.338 C738.053,455.338 756.806,436.864 756.806,436.864 C759.073,434.63 762.049,433.613 765.109,432.008 C765.891,432.091 767.687,433.063 767.995,432.559 C767.995,432.559 769.734,429.719 769.734,429.719 C769.734,429.719 780.477,426.516 780.477,426.516 C786.302,424.78 793.535,425.014 799.584,426.418 C799.584,426.418 811.112,429.094 811.112,429.094 C813.284,429.598 815.262,432.792 817.707,433.21 C822.41,434.013 826.836,438.994 828.987,443.874 C833.268,444.073 833.953,447.269 835.804,450.075 C835.804,450.075 838.692,454.453 838.692,454.453 C839.69,455.965 841.158,460.553 843.894,459.84 C849.124,458.478 851.198,451.776 855.228,449.397 C855.228,449.397 864.528,443.908 864.528,443.908 C868.444,439.773 894.873,434.011 907.529,438.387 C913.44,440.43 920.025,441.428 924.891,446.011 C929.782,447.197 932.226,451.803 934.031,455.541 C948.38,471.001 949.058,488.073 947.574,508.637 C947.574,508.637 946.378,525.211 946.378,525.211 C946.378,525.211 941.466,546.329 941.466,546.329 C941.466,546.329 938.044,555.166 938.044,555.166 C936.292,559.691 937.952,565.685 933.906,570.05 C931.567,572.574 932.233,576.956 931.224,579.782 C931.224,579.782 929.282,585.218 929.282,585.218 C929.282,585.218 924.872,594.037 924.872,594.037 C923.153,597.474 922.212,602.127 918.123,603.806 C909.451,607.366 897.427,606.381 893.175,602.086 C889.91,598.788 889.496,595.672 889.777,590.92 C889.777,590.92 890.384,580.626 890.384,580.626 C891.298,580.09 892.438,579.051 892.962,578.436 C893.457,577.854 891.679,575.656 892.009,574.823 C895.925,564.938 897.354,554.03 899.953,544.678 C899.953,544.678 904.865,527.006 904.865,527.006 C906.073,522.66 905.872,518.535 906.434,514.378 C907.14,509.16 907.727,502.964 906.065,497.858 C905.401,495.818 905.868,492.98 905.291,491.599 C900.182,479.377 884.363,476.833 873.278,484.392 C869.87,486.716 866.028,487.161 863.509,491.782 C863.509,491.782 859.629,495.79 859.629,495.79 C857.408,500.042 855.126,503.649 855.183,508.668 Z " fill="rgb(253,105,3)"/>
<path d="M713.696,829.872 C713.197,829.647 712.269,831.67 711.732,831.851 C711.732,831.851 685.656,840.629 685.656,840.629 C685.656,840.629 659.511,847.517 659.511,847.517 C659.511,847.517 649.389,849.183 649.389,849.183 C649.389,849.183 630.58,851.485 630.58,851.485 C630.58,851.485 598.335,852.156 598.335,852.156 C597.747,850.332 596.284,850.911 595.689,851.75 C592.078,851.167 588.82,849.857 585.207,850.251 C580.868,850.725 561.101,846.619 552.828,844.021 C552.828,844.021 530.188,836.911 530.188,836.911 C519.725,833.625 514.052,829.313 512.214,828.89 C512.45,828.781 510.682,827.785 510.948,827.408 C510.948,827.408 512.859,824.705 512.859,824.705 C521.583,816.201 531.653,809.035 543.06,804.194 C586.378,785.812 645.937,785.642 687.252,807.638 C697.917,813.316 707.651,820.11 713.696,829.872 Z " fill="rgb(252,105,3)"/>
<path d="M133.938,593.861 C125.827,574.149 109.252,560.294 90.199,550.828 C90.199,550.828 65.2169,540.64 65.2169,540.64 C58.7908,538.019 53.0091,535.724 46.8709,531.866 C22.9358,516.82 17.6874,481.999 36.6059,460.288 C46.399,449.049 60.6382,442.668 76.1032,441.716 C93.8863,440.62 110.723,448.251 123.948,459.913 C123.948,459.913 140.863,477.019 140.863,477.019 C140.863,477.019 152.63,494.282 152.63,494.282 C163.309,512.059 169.924,530.894 176.701,550.183 C178.947,556.576 182.218,563.314 187.982,566.905 C193.823,570.543 200.692,566.683 204.245,560.989 C217.558,539.656 219.015,510.738 216.092,483.968 C216.092,483.968 212.168,448.034 212.168,448.034 C212.168,448.034 212.601,425.857 212.601,425.857 C214.813,406.929 227.065,390.761 245.851,387.011 C260.787,384.029 275.048,389.394 283.198,401.799 C290.088,412.287 292.456,424.302 292.001,437.01 C291.709,445.146 291.855,453.02 289.952,461.05 C289.952,461.05 282.32,493.248 282.32,493.248 C278.495,509.39 272.18,523.827 265.056,539.195 C249.41,572.949 230.584,604.132 207.95,633.802 C207.95,633.802 186.087,659.197 186.087,659.197 C170.477,677.33 152.687,691.725 132.992,705.185 C113.783,718.313 93.2459,728.604 70.19,732.016 C52.7604,734.596 35.1473,730.179 24.1738,717.171 C16.0303,707.518 12.9448,696.243 12.8841,683.973 C12.7649,659.908 28.4982,640.481 51.8866,634.689 C63.6739,631.769 76.3478,632.542 88.9438,634.068 C88.9438,634.068 93.3865,634.607 93.3865,634.607 C93.3865,634.607 111.817,634.677 111.817,634.677 C120.657,634.711 130.147,629.3 133.705,621.245 C137.818,611.931 137.737,603.093 133.938,593.861 Z M93.3941,636.463 C93.3941,636.463 80.8024,635.271 80.8024,635.271 C80.8024,635.271 70.7221,634.427 70.7221,634.427 C66.0482,632.867 61.5645,635.984 56.8154,636.273 C52.9746,636.506 47.8233,635.637 44.8758,639.151 C44.8758,639.151 39.7379,640.454 39.7379,640.454 C39.2704,643.113 37.0585,642.325 36.1522,643.148 C36.1522,643.148 23.4571,654.685 23.4571,654.685 C24.2034,658.215 21.5639,661.208 19.1732,662.622 C14.9298,673.186 12.5497,689.286 18.0713,698.809 C17.9905,702.533 18.1333,707.353 22.0629,709.977 C26.4129,712.457 26.5661,719.295 31.5053,719.56 C32.5606,725.294 38.2962,722.154 41.7216,727.465 C44.7743,726.934 48.4575,729.505 50.9363,729.496 C57.2785,729.473 63.1881,728.343 69.5021,729.517 C77.4601,730.997 85.2847,726.828 92.8891,724.31 C92.8891,724.31 103.264,720.875 103.264,720.875 C103.872,720.715 103.97,718.996 104.513,718.986 C104.513,718.986 107.234,718.937 107.234,718.937 C108.54,717.583 111.99,716.497 113.452,715.533 C113.452,715.533 123.465,708.928 123.465,708.928 C127.108,706.525 132.119,704.899 134.7,700.624 C136.337,699.799 138.348,699.768 140.189,698.315 C140.189,698.315 153.089,688.13 153.089,688.13 C153.089,688.13 160.977,681.053 160.977,681.053 C166.014,676.534 168.298,673.596 172.064,669.868 C172.064,669.868 190.982,651.141 190.982,651.141 C190.982,651.141 195.979,645.639 195.979,645.639 C199.236,642.053 201.605,636.952 205.101,633.025 C205.101,633.025 211.304,626.055 211.304,626.055 C213.661,623.407 214.731,620.464 216.989,617.785 C222.699,611.012 227.69,603.368 232.489,595.576 C234.438,592.413 235.106,588.656 238.905,586.445 C238.566,583.806 240.205,581.16 242.621,579.988 C245.318,574.799 246.685,569.594 250.205,565.238 C250.205,565.238 255.256,554.077 255.256,554.077 C257.58,548.944 261.027,544.681 262.591,538.954 C263.855,534.323 266.553,529.701 268.169,524.877 C270.571,522.721 274.128,513.312 274.753,509.527 C276.364,499.778 280.987,494.392 281.586,488.437 C282.074,483.584 284.407,479.191 284.105,473.768 C287.001,471.08 287.742,467.145 286.736,462.899 C289.708,457.907 288.8,452.414 289.39,447.062 C290.339,438.439 289.889,422.477 288.402,420.362 C287.112,418.526 287.573,416.183 286.766,414.173 C286.766,414.173 283.109,405.066 283.109,405.066 C283.109,405.066 278.986,399.252 278.986,399.252 C277.032,396.498 274.793,396.256 273.264,394.92 C269.796,391.893 266.347,388.131 261.159,389.4 C260.099,389.659 259.154,388.916 257.98,388.019 C254.451,389.222 251.356,389.448 247.836,388.013 C244.92,390.633 240.954,390.977 237.278,391.24 C231.259,393.941 227.086,398.419 223.829,403.773 C219.503,408.056 216.774,413.252 216.338,418.846 C211.891,425.199 214.883,432.778 214.638,439.962 C214.28,450.471 214.416,461.062 217.464,470.555 C217.464,470.555 218.287,486.697 218.287,486.697 C218.287,486.697 219.483,498.383 219.483,498.383 C220.805,511.313 218.799,528.045 214.916,539.885 C214.916,539.885 209.663,555.903 209.663,555.903 C207.896,561.292 199.355,570.827 189.084,570.109 C185.102,569.83 184.272,566.727 182.285,564.892 C172.764,556.103 174.717,547.881 169.958,537.733 C167.747,536.039 166.788,533.5 165.972,530.964 C165.972,530.964 161.903,518.307 161.903,518.307 C161.903,518.307 156.522,505.335 156.522,505.335 C156.016,505.067 155.166,504.776 155.114,504.369 C155.114,504.369 154.786,501.769 154.786,501.769 C154.69,501.007 152.753,500.793 152.25,500.203 C151.874,499.762 152.244,497.442 151.717,497.079 C148.926,495.159 146.692,490.777 145.203,488.015 C145.203,488.015 141.174,480.544 141.174,480.544 C137.659,474.026 130.75,469.735 125.267,465.139 C125.267,465.139 122.154,462.53 122.154,462.53 C123.378,461.684 122.468,460.697 121.987,460.532 C121.719,460.44 121.246,460.089 120.391,460.938 C118.08,457.186 113.423,455.683 110.352,453.078 C107.702,450.829 106.555,449.825 102.965,449.667 C102.965,449.667 95.8153,446.716 95.8153,446.716 C92.3492,447.153 89.8682,445.664 87.0899,444.38 C82.7518,442.374 78.0079,444.582 74.0546,444.616 C70.706,444.644 68.2552,443.527 64.8666,444.896 C64.8666,444.896 56.943,448.097 56.943,448.097 C49.7107,451.019 42.2939,455.683 38.3895,461.196 C33.7436,467.756 27.3128,474.527 27.6534,484.056 C27.6534,484.056 28.3746,504.231 28.3746,504.231 C28.4054,505.094 29.0549,507.053 29.5522,507.627 C29.9156,508.047 31.3917,507.732 31.6054,509.194 C31.9594,511.617 32.3198,513.087 34.1706,515.204 C34.1706,515.204 45.8867,528.604 45.8867,528.604 C49.0662,530.538 52.1191,532.06 55.161,533.41 C55.161,533.41 65.9548,538.201 65.9548,538.201 C65.9548,538.201 83.9918,545.646 83.9918,545.646 C86.34,546.616 88.836,548.452 92.1338,548.408 C98.3122,552.34 105.992,559.376 111.065,560.587 C113.312,561.123 115.532,563.734 118.152,565.424 C119.607,566.362 120.315,569.82 123.552,569.479 C123.552,569.479 124.255,575.582 124.255,575.582 C127.256,575.792 126.951,578.433 127.858,579.943 C129.4,582.514 132.149,583.683 132.156,587.281 C135.628,588.713 137.621,592.784 136.173,596.151 C140.086,597.812 138.178,601.02 138.267,603.938 C138.573,613.919 136.395,623.626 129.085,629.647 C119.899,637.214 106.289,637.683 93.3941,636.463 Z " fill="rgb(194,139,105)"/>
<path d="M913.828,717.16 C907.52,695.324 892.831,679.725 871.023,673.26 C884.037,665.515 899.194,670.183 908.819,680.138 C917.814,689.785 922.447,704.389 913.828,717.16 Z " fill="rgb(72,32,16)"/>
<path d="M313.995,716.586 C308.623,711.815 308.684,703.778 309.94,696.933 C313.167,679.357 329.735,667.291 347.185,669.663 C350.31,670.087 353.935,670.949 355.394,673.92 C334.899,679.852 319.482,694.839 313.995,716.586 Z " fill="rgb(69,30,14)"/>
<path d="M972.871,601.438 C966.138,593.566 961.888,583.532 958.919,573.135 C955.56,561.371 955.712,550.811 957.773,538.874 C961.378,517.997 971.018,498.679 987.844,485.303 C1020.37,459.445 1068.07,466.831 1091.18,501.835 C1091.18,501.835 1094.05,506.948 1094.05,506.948 C1109.84,538.243 1104.02,575.949 1081.33,602.105 C1052.17,635.728 1001.58,634.999 972.871,601.438 Z M1084.5,593.42 C1084.44,593.114 1085.55,592.929 1085.86,592.834 C1085.86,592.834 1093.44,580.439 1093.44,580.439 C1095.5,577.082 1096.4,573.069 1097.31,568.916 C1097.31,568.916 1099.96,556.786 1099.96,556.786 C1100.34,555.082 1100.42,552.252 1100.32,549.966 C1100.32,549.966 1099.62,534.633 1099.62,534.633 C1099.18,524.827 1095.24,510.373 1088.48,503.424 C1088.14,496.706 1081.01,493.968 1079.21,490.089 C1078.1,487.706 1075.2,487.592 1073.58,487.309 C1071.45,484.799 1068.8,480.269 1063.84,480.838 C1061.82,477.95 1058.18,477.135 1055.28,476.135 C1050.69,473.633 1038.96,471.957 1037.19,472.235 C1027.76,473.72 1022.18,471.148 1012.09,474.525 C1012.09,474.525 1005.11,476.861 1005.11,476.861 C998.574,479.046 994.585,482.546 990.044,486.441 C990.044,486.441 982.158,493.206 982.158,493.206 C976.591,497.981 972.192,503.91 970.148,510.57 C964.521,516.569 963.304,524.682 961.279,532.121 C961.279,532.121 959.283,539.454 959.283,539.454 C959.283,539.454 958.866,555.935 958.866,555.935 C957.08,567.824 962.308,576.708 966.224,586.271 C968.301,591.344 969.871,595.821 974.003,600.131 C975.378,601.565 976.861,603.887 979.112,603.567 C979.274,606.683 981.596,607.554 983.31,608.705 C988.949,612.488 993.861,617.108 1001.34,618.876 C1002.56,619.165 1005.47,619.937 1006.23,620.852 C1010.61,626.079 1040.3,626.37 1051.32,621.217 C1051.99,620.261 1053.91,619.262 1055.82,617.509 C1066.4,617.238 1085.31,597.31 1084.5,593.42 Z " fill="rgb(194,143,112)"/>
<path d="M1233.88,607.86 C1223.93,629.767 1204.27,646.662 1180.03,649.288 C1158.14,651.66 1132.86,643.585 1119.27,626.057 C1110.31,614.497 1104.86,601.365 1104.05,586.96 C1102.65,561.934 1111.48,537.636 1129.95,521.144 C1150.23,503.046 1180.89,499.831 1205.11,513.151 C1237.88,531.162 1250.25,571.83 1233.88,607.86 Z M1194.48,644.585 C1194.48,644.585 1195.48,642.989 1195.48,642.989 C1195.69,642.657 1197.94,643.249 1198.25,642.886 C1199.96,640.935 1204.87,639.729 1206.89,638.233 C1217.25,630.563 1225.52,621.398 1231.22,610.142 C1231.54,609.516 1230.79,606.948 1231.4,607.066 C1231.97,607.176 1232.66,606.966 1232.89,606.142 C1232.89,606.142 1238.11,587.356 1238.11,587.356 C1239.74,581.492 1238.65,575.581 1239.23,569.156 C1239.87,562.17 1234.47,555.326 1233.5,546.713 C1232.45,546.417 1231.1,545.951 1231.1,545.351 C1231.1,544.951 1231.35,543.367 1231.12,542.986 C1231.12,542.986 1226.01,534.41 1226.01,534.41 C1223.67,530.496 1221.55,526.592 1218.23,524.179 C1218.23,524.179 1213.19,520.511 1213.19,520.511 C1212.25,520.631 1211.42,520.808 1210.96,520.436 C1210.48,520.048 1209.97,518.679 1209.79,518.247 C1199.6,513.196 1192.18,506.879 1178.5,507.354 C1178.5,507.354 1160.95,507.963 1160.95,507.963 C1149.89,510.38 1139.72,514.037 1131.01,522.046 C1126.13,526.538 1119.57,533.252 1119.5,536.23 C1119.45,538.345 1117.19,539.376 1116.05,540.847 C1113.23,544.492 1110.23,553.65 1109.77,561.614 C1110.62,559.523 1109.53,560.789 1109.07,560.595 C1106.75,559.62 1106.98,566.181 1106.39,572.332 C1105.23,584.543 1105.29,602.814 1112.46,609.862 C1113.23,612.861 1114.63,616.235 1117.14,618.863 C1116.84,620.494 1118.3,620.169 1118.64,620.541 C1118.99,620.914 1118.4,622.282 1118.29,622.859 C1118.29,622.859 1125.37,630.429 1125.37,630.429 C1129.64,634.995 1134.57,635.218 1138.45,638.551 C1141.12,640.843 1144.81,641.619 1147.49,643.03 C1157.08,648.069 1168.98,648.829 1180.31,647.476 C1185.02,646.913 1189.17,646.825 1194.48,644.585 Z " fill="rgb(195,156,133)"/>
<path d="M528.665,602.624 C519.96,605.784 511.531,606.057 501.884,606.14 C473.283,606.386 447.556,587.666 446.863,558.028 C446.228,530.868 463.316,513.743 486.358,503.122 C512.216,491.203 538.391,494.503 543.465,487.924 C549.291,480.368 539.44,464.527 521.672,462.265 C496.453,459.056 480.164,470.688 477.593,469.772 C474.249,468.581 474.176,456.334 478.032,447.875 C488.452,425.016 518.131,416.297 542.582,421.309 C561.349,425.156 578.341,434.883 587.506,452.35 C593.31,463.412 594.679,475.438 595.583,488.026 C595.583,488.026 594.599,517.882 594.599,517.882 C594.599,517.882 594.503,551.671 594.503,551.671 C594.435,575.333 608.706,588.761 599.243,598.64 C590.338,607.938 574.963,606.693 566.285,596.661 C566.285,596.661 560.148,587.594 560.148,587.594 C560.148,587.594 544.975,595.993 544.975,595.993 C539.621,598.957 534.105,600.648 528.665,602.624 Z M453.806,579.286 C456.084,581.801 457.286,584.617 459.797,586.256 C463.648,588.77 466.254,592.508 469.47,595.323 C472.738,598.183 477.875,598.687 482.176,600.36 C483.914,602.507 486.77,603.649 490.011,602.742 C498.657,603.746 507.046,605.037 515.505,603.467 C521.689,603.243 528.176,602.403 533.468,598.181 C538.906,598.355 543.298,595.098 547.26,592.308 C552.65,591.619 556.05,587.417 561.149,585.782 C563.349,585.077 564.126,589.182 565.108,590.949 C568.066,596.274 573.881,601.479 579.881,601.915 C579.881,601.915 589.042,602.582 589.042,602.582 C590.213,602.667 592.534,601.182 593.665,601.751 C592.622,599.482 594.601,599.329 595.38,598.946 C596.289,598.5 596.612,597.952 597.726,599.024 C600.416,594.748 602.385,590.121 600.063,586.044 C597.72,581.932 596.648,577.584 594.948,572.742 C594.948,572.742 593.456,555.73 593.456,555.73 C593.456,555.73 592.645,543.329 592.645,543.329 C592.362,539.007 591.427,533.918 592.703,529.57 C594.064,524.927 590.938,519.69 592.96,515.537 C595.451,510.419 592.992,505.176 593.441,500.116 C594.082,492.9 594.306,486.859 592.246,479.927 C592.246,479.927 591.403,469.691 591.403,469.691 C591.403,469.691 585.229,451.276 585.229,451.276 C585.229,451.276 580.509,446.042 580.509,446.042 C577.518,439.759 571.535,440.275 567.29,433.763 C564.859,430.032 560.501,428.86 556.427,428.502 C556.427,428.502 549.928,425.356 549.928,425.356 C545.171,425.266 541.33,422.388 536.884,422.415 C536.884,422.415 517.851,422.531 517.851,422.531 C516.239,422.541 514.03,423.956 512.067,422.776 C511.728,423.875 512.561,424.252 512.792,424.484 C513.991,425.689 497.626,428.289 494.821,431.053 C494.821,431.053 480.964,444.709 480.964,444.709 C479.59,448.46 476.424,451.384 479.146,455.424 C476.019,458.922 476.235,464.252 479.28,466.599 C485.25,466.38 489.891,463.745 495.057,462.456 C513.312,457.902 515.924,459.696 532.086,462.506 C534.041,462.846 536.84,465.319 538.544,466.122 C541.025,467.292 546.52,477.264 546.644,476.295 C546.577,476.818 545.659,478.101 546.136,478.997 C548.748,483.908 543.908,489.892 542.872,490.505 C542.872,490.505 537.547,493.658 537.547,493.658 C532.878,493.732 527.503,494.556 522.392,495.383 C517.732,496.138 511.976,495.309 507.221,498.339 C504.836,499.858 498.293,500.514 495.113,502.329 C492.914,503.583 488.289,502.331 485.962,505.124 C485.962,505.124 478.222,508.983 478.222,508.983 C476.048,510.066 474.393,511.444 472.54,512.372 C472.54,512.372 472.922,514.291 472.922,514.291 C472.976,514.561 472.219,514.857 471.587,514.136 C467.582,517.159 463.694,519.942 459.915,524.221 C459.915,524.221 453.551,535.579 453.551,535.579 C451.596,539.067 450.505,541.409 450.132,545.062 C449.349,552.751 447.74,559.755 450.226,568.138 C450.673,569.644 449.76,572.204 453.555,572.444 C453.532,574.531 452.071,577.37 453.806,579.286 Z " fill="rgb(194,142,110)"/>
<path d="M358.972,617.092 C330.892,624.883 296.36,617.403 285.261,588.511 C276.028,564.476 286.973,538.274 308.814,523.713 C325.432,512.635 344.769,506.822 364.622,504.661 C369.587,504.12 374.956,502.895 378.798,499.764 C382.29,496.919 381.576,491.179 379.359,487.601 C375.073,480.683 367.793,476.62 359.511,475.465 C336.15,472.209 318.034,484.213 313.453,483.035 C310.396,482.25 310.064,446.359 352.706,435.588 C369.893,431.246 388.387,433.456 404.071,441.832 C432.435,456.979 435.68,489.689 433.162,520.984 C433.162,520.984 432.117,533.971 432.117,533.971 C430.36,555.818 429.04,579.77 443.056,596.985 C444.319,598.537 445.177,601.088 444.763,602.598 C442.99,609.059 438.48,612.803 432.218,614.392 C417.021,618.248 406.642,612.143 397.651,598.661 C397.651,598.661 376.014,610.893 376.014,610.893 C376.014,610.893 358.972,617.092 358.972,617.092 Z M319.824,614.047 C320.798,615.362 320.976,616.156 321.093,616.933 C323.603,615.337 326.273,617.816 327.852,617.924 C339.051,615.791 353.197,618.777 360.245,615.533 C362.239,614.616 364.891,611.761 367.772,611.669 C374.153,611.464 378.956,607.434 383.137,604.338 C385.56,602.544 391.084,603.373 391.915,597.919 C394.387,598.206 395.727,597.387 397.893,597.072 C401.58,601.78 405.069,606.262 409.861,609.928 C411.49,609.877 412.955,610.109 414.318,610.801 C420.977,614.181 429.053,613.821 435.769,610.886 C440.53,608.805 443.212,604.065 440.882,598.882 C438.278,593.09 433.705,587.562 432.326,581.005 C432.326,581.005 430.668,573.12 430.668,573.12 C430.668,573.12 429.581,561.307 429.581,561.307 C427.756,555.182 429.976,548.974 429.398,543.039 C429.398,543.039 430.744,531.453 430.744,531.453 C431.026,515.418 431.921,497.577 430.278,482.977 C428.882,480.467 426.544,476.034 427.724,472.169 C428.338,470.159 425.166,469.116 424.767,467.906 C423.245,463.293 417.846,457.783 414.409,454.052 C414.409,454.052 407.807,446.887 407.807,446.887 C406.134,445.071 402.905,445.338 401.13,442.723 C398.772,439.247 392.308,440.068 388.191,438.572 C384.346,437.175 381.361,435.686 376.933,435.834 C376.933,435.834 361.484,436.352 361.484,436.352 C361.484,436.352 340.097,441.441 340.097,441.441 C341.462,442.895 340.081,443.707 339.424,443.9 C338.972,444.034 337.834,443.608 337.157,443.402 C337.157,443.402 327.358,450.535 327.358,450.535 C322.43,454.123 315.32,463.565 315.548,469.816 C315.73,474.81 313.172,477.947 316.473,480.022 C318.435,481.256 320.036,478.687 321.352,478.42 C321.352,478.42 347.801,473.051 347.801,473.051 C355.239,471.541 361.268,473.599 368.144,475.861 C370.739,476.715 375.831,475.892 376.386,479.68 C376.829,482.706 380.426,483.752 382.085,486.123 C383.72,489.139 383.663,495.861 382.198,498.814 C380.173,502.892 375.442,504.451 372.434,504.98 C372.434,504.98 346.392,509.56 346.392,509.56 C341.937,510.344 336.723,511.516 333.412,513.921 C330.79,515.826 329.094,515.667 325.928,516.463 C320.31,517.877 306.943,525.914 303.546,529.389 C303.546,529.389 297.179,535.903 297.179,535.903 C294.176,538.975 290.86,541.867 291.834,547.321 C285.664,551.496 284.471,559.006 284.911,565.959 C284.911,565.959 285.244,583.015 285.244,583.015 C285.275,584.598 286.772,586.819 288.541,587.76 C287.145,593.357 294.07,597.416 294.788,599.971 C296.011,604.32 303.62,607.732 309.382,609.621 C309.778,611.31 310.179,613.13 311.353,613.294 C311.353,613.294 314.793,613.777 314.793,613.777 C316.843,614.065 318.239,615.261 319.824,614.047 Z " fill="rgb(195,139,107)"/>
<path d="M855.183,508.668 C855.126,503.649 857.408,500.042 859.629,495.79 C859.629,495.79 863.509,491.782 863.509,491.782 C866.028,487.161 869.87,486.716 873.278,484.392 C884.363,476.833 900.182,479.377 905.291,491.599 C905.868,492.98 905.401,495.818 906.065,497.858 C907.727,502.964 907.14,509.16 906.434,514.378 C905.872,518.535 906.073,522.66 904.865,527.006 C904.865,527.006 899.953,544.678 899.953,544.678 C897.354,554.03 895.925,564.938 892.009,574.823 C891.679,575.656 893.457,577.854 892.962,578.436 C892.438,579.051 891.298,580.09 890.384,580.626 C890.384,580.626 889.777,590.92 889.777,590.92 C889.496,595.672 889.91,598.788 893.175,602.086 C897.427,606.381 909.451,607.366 918.123,603.806 C922.212,602.127 923.153,597.474 924.872,594.037 C924.872,594.037 929.282,585.218 929.282,585.218 C929.282,585.218 931.224,579.782 931.224,579.782 C932.233,576.956 931.567,572.574 933.906,570.05 C937.952,565.685 936.292,559.691 938.044,555.166 C938.044,555.166 941.466,546.329 941.466,546.329 C941.466,546.329 946.378,525.211 946.378,525.211 C946.378,525.211 947.574,508.637 947.574,508.637 C949.058,488.073 948.38,471.001 934.031,455.541 C932.226,451.803 929.782,447.197 924.891,446.011 C920.025,441.428 913.44,440.43 907.529,438.387 C894.873,434.011 868.444,439.773 864.528,443.908 C864.528,443.908 855.228,449.397 855.228,449.397 C851.198,451.776 849.124,458.478 843.894,459.84 C841.158,460.553 839.69,455.965 838.692,454.453 C838.692,454.453 835.804,450.075 835.804,450.075 C833.953,447.269 833.268,444.073 828.987,443.874 C826.836,438.994 822.41,434.013 817.707,433.21 C815.262,432.792 813.284,429.598 811.112,429.094 C811.112,429.094 799.584,426.418 799.584,426.418 C793.535,425.014 786.302,424.78 780.477,426.516 C780.477,426.516 769.734,429.719 769.734,429.719 C769.734,429.719 767.995,432.559 767.995,432.559 C767.687,433.063 765.891,432.091 765.109,432.008 C762.049,433.613 759.073,434.63 756.806,436.864 C756.806,436.864 738.053,455.338 738.053,455.338 C734.87,454.261 734.583,450.793 733.261,449.143 C732.161,447.77 730.735,446.479 730.493,445.247 C730.04,442.94 727.524,441.846 725.866,440.435 C725.866,440.435 715.979,432.016 715.979,432.016 C713.376,429.11 710.17,427.278 706.484,427.864 C701.52,424.552 696.34,423.383 690.631,423.153 C690.631,423.153 671.355,422.374 671.355,422.374 C665.431,425.201 656.952,425.837 651.198,429.231 C648.02,431.106 644.007,433.097 641.655,435.403 C640.231,438.021 639.335,439.312 636.246,440.733 C633.476,442.008 625.489,451.121 626.357,455.849 C624.208,456.496 622.849,457.908 622.879,459.959 C622.921,462.796 620.739,464.883 620.038,467.303 C620.038,467.303 615.98,481.319 615.98,481.319 C613.088,491.307 612.171,517.695 613.424,530.552 C613.424,530.552 614.608,542.706 614.608,542.706 C614.608,542.706 614.963,561.105 614.963,561.105 C614.963,561.105 616.694,566.364 616.694,566.364 C616.795,571.861 618.084,576.948 619.387,582.568 C620.597,587.781 620.838,593.854 625.894,597.006 C635.673,603.102 646.579,600.057 652.82,591.338 C659.17,582.468 655.571,574.421 656.163,568 C656.746,561.685 656.862,555.745 656.483,549.667 C656.483,549.667 655.704,537.173 655.704,537.173 C654.951,525.086 654.13,512.679 655.859,501.056 C655.859,501.056 657.234,491.808 657.234,491.808 C658.262,484.896 662.078,477.132 667.401,472.541 C675.037,465.954 677.931,467.673 682.989,467.125 C686.456,466.75 688.438,469.467 692.147,468.42 C696.304,471.009 701.463,474.458 703.018,479.876 C703.015,482.752 705.73,484.091 706.588,486.232 C705.671,487.944 706.015,490.309 706.898,492.066 C710.912,500.06 711.475,508.051 711.458,516.646 C711.458,516.646 711.389,551.123 711.389,551.123 C711.389,551.123 710.589,566.653 710.589,566.653 C710.37,570.906 711.37,575.375 710.304,579.978 C708.955,585.8 712.158,590.035 716.393,594.318 C716.393,594.318 729.89,595.546 729.89,595.546 C733.867,595.907 736.164,595.372 739.118,593.054 C742.492,590.405 745.099,587.919 745.613,583.224 C745.613,583.224 748.843,553.719 748.843,553.719 C748.843,553.719 749.426,539.353 749.426,539.353 C749.426,539.353 751.231,523.953 751.231,523.953 C751.231,523.953 754.642,501.314 754.642,501.314 C755.088,498.358 758.526,495.218 758.619,491.924 C758.779,486.266 762.751,483.966 765.235,480.157 C770.349,472.313 780.149,469.253 790.175,470.106 C805.507,471.411 811.169,492.298 809.544,508.341 C808.407,519.564 803.91,546.661 802.466,548.948 C800.318,552.35 801.061,556.373 800.655,559.557 C800.655,559.557 797.924,581.008 797.924,581.008 C797.214,586.585 797.681,591.639 801.866,595.068 C805.115,597.731 807.822,598.893 811.654,599.609 C823.398,601.801 833.193,594.018 835.358,582.121 C836.255,577.191 837.678,572.486 839.598,567.826 C839.23,575.654 837.181,583.567 833.749,590.572 C829.839,598.556 823.685,601.609 814.886,601.298 C806.598,601.005 798.208,597.785 796.462,588.39 C795.321,582.25 796.087,574.804 797.379,567.99 C797.379,567.99 806.093,522.025 806.093,522.025 C806.093,522.025 807.482,509.558 807.482,509.558 C808.896,496.872 806.301,479.719 795.907,474.18 C785.252,468.504 772.139,472.72 765.386,482.429 C759.061,491.523 755.505,502.078 754.398,513.399 C754.398,513.399 747.9,579.855 747.9,579.855 C746.727,591.843 737.737,598.471 726.007,598.198 C716.147,597.968 707.944,592.283 708.19,581.843 C708.19,581.843 708.594,564.636 708.594,564.636 C708.594,564.636 709.408,527.662 709.408,527.662 C709.799,509.883 706.179,481.335 694.159,473.125 C684.461,466.501 672.775,467.754 665.956,476.913 C654.934,491.717 656.738,517.934 657.806,537.972 C657.806,537.972 658.473,550.463 658.473,550.463 C658.473,550.463 658.545,580.437 658.545,580.437 C658.576,593.569 647.744,602.588 635.111,602.166 C625.22,601.836 618.892,595.744 617.473,586.124 C617.473,586.124 613.415,558.61 613.415,558.61 C613.415,558.61 612.448,547.674 612.448,547.674 C612.448,547.674 611.716,534.09 611.716,534.09 C611.716,534.09 611.53,500.688 611.53,500.688 C611.481,491.787 613.483,483.589 615.863,474.949 C618.74,464.501 622.283,454.724 629.256,446.004 C633.172,441.108 637.719,435.886 642.912,432.229 C674.557,409.942 718.725,418.234 738.369,453.273 C753.617,433.785 773.245,422.114 798.12,424.051 C818.601,425.647 835.068,439.327 843.372,458.162 C843.372,458.162 849.041,452.921 849.041,452.921 C853.486,448.813 857.942,446.017 863.123,443.082 C875.647,435.987 888.504,433.523 903.626,435.524 C938.311,440.114 953.688,472.66 950.463,507.329 C949.169,521.248 947.248,534.612 943.029,548.031 C943.029,548.031 933.407,578.635 933.407,578.635 C933.407,578.635 925.214,598.949 925.214,598.949 C922.051,606.793 914.76,608.393 906.961,608.312 C899.42,608.233 891.397,606.346 888.553,598.546 C886.969,594.201 887.177,588.664 888.314,583.939 C888.314,583.939 894.076,559.977 894.076,559.977 C894.076,559.977 901.164,533.021 901.164,533.021 C905.546,516.356 909.263,494.327 896.622,485.66 C891.472,482.129 886.229,481.267 879.879,482.982 C872.735,484.91 867.843,490.324 862.697,495.821 C862.697,495.821 855.183,508.668 855.183,508.668 Z " fill="rgb(199,127,82)"/>
<path d="M713.696,829.872 C707.651,820.11 697.917,813.316 687.252,807.638 C645.937,785.642 586.378,785.812 543.06,804.194 C531.653,809.035 521.583,816.201 512.859,824.705 C512.859,824.705 510.948,827.408 510.948,827.408 C510.682,827.785 512.45,828.781 512.214,828.89 C505.426,827.331 499.18,823.979 492.531,820.567 C462.401,805.105 435.494,784.754 410.574,761.738 C410.574,761.738 396.348,748.599 396.348,748.599 C396.348,748.599 352.514,705.48 352.514,705.48 C350.242,703.245 349.249,700.853 350.868,698.437 C352.073,696.639 355.281,694.937 357.627,696.311 C357.627,696.311 375.993,707.063 375.993,707.063 C396.01,718.781 415.934,728.423 437.791,736.234 C554.952,778.101 686.371,775.441 803.26,731.075 C826.841,722.125 848.651,710.598 870.007,697.083 C872.569,695.462 874.834,695.94 876.61,696.95 C878.081,697.787 879.859,701.391 878.254,703.067 C878.254,703.067 858.158,724.058 858.158,724.058 C858.158,724.058 827.993,754.087 827.993,754.087 C827.993,754.087 815.044,766.095 815.044,766.095 C815.044,766.095 796.354,781.573 796.354,781.573 C771.892,800.416 746.518,817.154 718.063,829.123 C716.549,829.76 715.061,830.485 713.696,829.872 Z " fill="rgb(70,31,13)"/>
<path d="M93.3941,636.463 C106.289,637.683 119.899,637.214 129.085,629.647 C136.395,623.626 138.573,613.919 138.267,603.938 C138.178,601.02 140.086,597.812 136.173,596.151 C137.621,592.784 135.628,588.713 132.156,587.281 C132.149,583.683 129.4,582.514 127.858,579.943 C126.951,578.433 127.256,575.792 124.255,575.582 C124.255,575.582 123.552,569.479 123.552,569.479 C120.315,569.82 119.607,566.362 118.152,565.424 C115.532,563.734 113.312,561.123 111.065,560.587 C105.992,559.376 98.3122,552.34 92.1338,548.408 C88.836,548.452 86.34,546.616 83.9918,545.646 C83.9918,545.646 65.9548,538.201 65.9548,538.201 C65.9548,538.201 55.161,533.41 55.161,533.41 C52.1191,532.06 49.0662,530.538 45.8867,528.604 C45.8867,528.604 34.1706,515.204 34.1706,515.204 C32.3198,513.087 31.9594,511.617 31.6054,509.194 C31.3917,507.732 29.9156,508.047 29.5522,507.627 C29.0549,507.053 28.4054,505.094 28.3746,504.231 C28.3746,504.231 27.6534,484.056 27.6534,484.056 C27.3128,474.527 33.7436,467.756 38.3895,461.196 C42.2939,455.683 49.7107,451.019 56.943,448.097 C56.943,448.097 64.8666,444.896 64.8666,444.896 C68.2552,443.527 70.706,444.644 74.0546,444.616 C78.0079,444.582 82.7518,442.374 87.0899,444.38 C89.8682,445.664 92.3492,447.153 95.8153,446.716 C95.8153,446.716 102.965,449.667 102.965,449.667 C106.555,449.825 107.702,450.829 110.352,453.078 C113.423,455.683 118.08,457.186 120.391,460.938 C121.246,460.089 121.719,460.44 121.987,460.532 C122.468,460.697 123.378,461.684 122.154,462.53 C122.154,462.53 125.267,465.139 125.267,465.139 C130.75,469.735 137.659,474.026 141.174,480.544 C141.174,480.544 145.203,488.015 145.203,488.015 C146.692,490.777 148.926,495.159 151.717,497.079 C152.244,497.442 151.874,499.762 152.25,500.203 C152.753,500.793 154.69,501.007 154.786,501.769 C154.786,501.769 155.114,504.369 155.114,504.369 C155.166,504.776 156.016,505.067 156.522,505.335 C156.522,505.335 161.903,518.307 161.903,518.307 C161.903,518.307 165.972,530.964 165.972,530.964 C166.788,533.5 167.747,536.039 169.958,537.733 C174.717,547.881 172.764,556.103 182.285,564.892 C184.272,566.727 185.102,569.83 189.084,570.109 C199.355,570.827 207.896,561.292 209.663,555.903 C209.663,555.903 214.916,539.885 214.916,539.885 C218.799,528.045 220.805,511.313 219.483,498.383 C219.483,498.383 218.287,486.697 218.287,486.697 C218.287,486.697 217.464,470.555 217.464,470.555 C214.416,461.062 214.28,450.471 214.638,439.962 C214.883,432.778 211.891,425.199 216.338,418.846 C216.774,413.252 219.503,408.056 223.829,403.773 C227.086,398.419 231.259,393.941 237.278,391.24 C240.954,390.977 244.92,390.633 247.836,388.013 C251.356,389.448 254.451,389.222 257.98,388.019 C259.154,388.916 260.099,389.659 261.159,389.4 C266.347,388.131 269.796,391.893 273.264,394.92 C274.793,396.256 277.032,396.498 278.986,399.252 C278.986,399.252 283.109,405.066 283.109,405.066 C283.109,405.066 286.766,414.173 286.766,414.173 C287.573,416.183 287.112,418.526 288.402,420.362 C289.889,422.477 290.339,438.439 289.39,447.062 C288.8,452.414 289.708,457.907 286.736,462.899 C287.742,467.145 287.001,471.08 284.105,473.768 C284.407,479.191 282.074,483.584 281.586,488.437 C280.987,494.392 276.364,499.778 274.753,509.527 C274.128,513.312 270.571,522.721 268.169,524.877 C266.553,529.701 263.855,534.323 262.591,538.954 C261.027,544.681 257.58,548.944 255.256,554.077 C255.256,554.077 250.205,565.238 250.205,565.238 C246.685,569.594 245.318,574.799 242.621,579.988 C240.205,581.16 238.566,583.806 238.905,586.445 C235.106,588.656 234.438,592.413 232.489,595.576 C227.69,603.368 222.699,611.012 216.989,617.785 C214.731,620.464 213.661,623.407 211.304,626.055 C211.304,626.055 205.101,633.025 205.101,633.025 C201.605,636.952 199.236,642.053 195.979,645.639 C195.979,645.639 190.982,651.141 190.982,651.141 C190.982,651.141 172.064,669.868 172.064,669.868 C168.298,673.596 166.014,676.534 160.977,681.053 C160.977,681.053 153.089,688.13 153.089,688.13 C153.089,688.13 140.189,698.315 140.189,698.315 C138.348,699.768 136.337,699.799 134.7,700.624 C132.119,704.899 127.108,706.525 123.465,708.928 C123.465,708.928 113.452,715.533 113.452,715.533 C111.99,716.497 108.54,717.583 107.234,718.937 C107.234,718.937 104.513,718.986 104.513,718.986 C103.97,718.996 103.872,720.715 103.264,720.875 C103.264,720.875 92.8891,724.31 92.8891,724.31 C85.2847,726.828 77.4601,730.997 69.5021,729.517 C63.1881,728.343 57.2785,729.473 50.9363,729.496 C48.4575,729.505 44.7743,726.934 41.7216,727.465 C38.2962,722.154 32.5606,725.294 31.5053,719.56 C26.5661,719.295 26.4129,712.457 22.0629,709.977 C18.1333,707.353 17.9905,702.533 18.0713,698.809 C12.5497,689.286 14.9298,673.186 19.1732,662.622 C21.5639,661.208 24.2034,658.215 23.4571,654.685 C23.4571,654.685 36.1522,643.148 36.1522,643.148 C37.0585,642.325 39.2704,643.113 39.7379,640.454 C39.7379,640.454 44.8758,639.151 44.8758,639.151 C47.8233,635.637 52.9746,636.506 56.8154,636.273 C61.5645,635.984 66.0482,632.867 70.7221,634.427 C70.7221,634.427 80.8024,635.271 80.8024,635.271 C80.8024,635.271 93.3941,636.463 93.3941,636.463 Z " fill="rgb(253,104,2)"/>
<path d="M319.824,614.047 C318.239,615.261 316.843,614.065 314.793,613.777 C314.793,613.777 311.353,613.294 311.353,613.294 C310.179,613.13 309.778,611.31 309.382,609.621 C303.62,607.732 296.011,604.32 294.788,599.971 C294.07,597.416 287.145,593.357 288.541,587.76 C286.772,586.819 285.275,584.598 285.244,583.015 C285.244,583.015 284.911,565.959 284.911,565.959 C284.471,559.006 285.664,551.496 291.834,547.321 C290.86,541.867 294.176,538.975 297.179,535.903 C297.179,535.903 303.546,529.389 303.546,529.389 C306.943,525.914 320.31,517.877 325.928,516.463 C329.094,515.667 330.79,515.826 333.412,513.921 C336.723,511.516 341.937,510.344 346.392,509.56 C346.392,509.56 372.434,504.98 372.434,504.98 C375.442,504.451 380.173,502.892 382.198,498.814 C383.663,495.861 383.72,489.139 382.085,486.123 C380.426,483.752 376.829,482.706 376.386,479.68 C375.831,475.892 370.739,476.715 368.144,475.861 C361.268,473.599 355.239,471.541 347.801,473.051 C347.801,473.051 321.352,478.42 321.352,478.42 C320.036,478.687 318.435,481.256 316.473,480.022 C313.172,477.947 315.73,474.81 315.548,469.816 C315.32,463.565 322.43,454.123 327.358,450.535 C327.358,450.535 337.157,443.402 337.157,443.402 C337.834,443.608 338.972,444.034 339.424,443.9 C340.081,443.707 341.462,442.895 340.097,441.441 C340.097,441.441 361.484,436.352 361.484,436.352 C361.484,436.352 376.933,435.834 376.933,435.834 C381.361,435.686 384.346,437.175 388.191,438.572 C392.308,440.068 398.772,439.247 401.13,442.723 C402.905,445.338 406.134,445.071 407.807,446.887 C407.807,446.887 414.409,454.052 414.409,454.052 C417.846,457.783 423.245,463.293 424.767,467.906 C425.166,469.116 428.338,470.159 427.724,472.169 C426.544,476.034 428.882,480.467 430.278,482.977 C431.921,497.577 431.026,515.418 430.744,531.453 C430.744,531.453 429.398,543.039 429.398,543.039 C429.976,548.974 427.756,555.182 429.581,561.307 C429.581,561.307 430.668,573.12 430.668,573.12 C430.668,573.12 432.326,581.005 432.326,581.005 C433.705,587.562 438.278,593.09 440.882,598.882 C443.212,604.065 440.53,608.805 435.769,610.886 C429.053,613.821 420.977,614.181 414.318,610.801 C412.955,610.109 411.49,609.877 409.861,609.928 C405.069,606.262 401.58,601.78 397.893,597.072 C395.727,597.387 394.387,598.206 391.915,597.919 C391.084,603.373 385.56,602.544 383.137,604.338 C378.956,607.434 374.153,611.464 367.772,611.669 C364.891,611.761 362.239,614.616 360.245,615.533 C353.197,618.777 339.051,615.791 327.852,617.924 C326.273,617.816 323.603,615.337 321.093,616.933 C320.976,616.156 320.798,615.362 319.824,614.047 Z M382.517,562.945 C386.85,557.81 391.075,546.274 386.964,541.528 C379.326,532.713 342.462,536.076 332.076,555.878 C327.623,564.368 330.415,574.483 338.9,577.842 C353.84,583.757 371.138,576.428 382.517,562.945 Z " fill="rgb(253,104,2)"/>
<path d="M1084.5,593.42 C1085.31,597.31 1066.4,617.238 1055.82,617.509 C1053.91,619.262 1051.99,620.261 1051.32,621.217 C1040.3,626.37 1010.61,626.079 1006.23,620.852 C1005.47,619.937 1002.56,619.165 1001.34,618.876 C993.861,617.108 988.949,612.488 983.31,608.705 C981.596,607.554 979.274,606.683 979.112,603.567 C976.861,603.887 975.378,601.565 974.003,600.131 C969.871,595.821 968.301,591.344 966.224,586.271 C962.308,576.708 957.08,567.824 958.866,555.935 C958.866,555.935 959.283,539.454 959.283,539.454 C959.283,539.454 961.279,532.121 961.279,532.121 C963.304,524.682 964.521,516.569 970.148,510.57 C972.192,503.91 976.591,497.981 982.158,493.206 C982.158,493.206 990.044,486.441 990.044,486.441 C994.585,482.546 998.574,479.046 1005.11,476.861 C1005.11,476.861 1012.09,474.525 1012.09,474.525 C1022.18,471.148 1027.76,473.72 1037.19,472.235 C1038.96,471.957 1050.69,473.633 1055.28,476.135 C1058.18,477.135 1061.82,477.95 1063.84,480.838 C1068.8,480.269 1071.45,484.799 1073.58,487.309 C1075.2,487.592 1078.1,487.706 1079.21,490.089 C1081.01,493.968 1088.14,496.706 1088.48,503.424 C1095.24,510.373 1099.18,524.827 1099.62,534.633 C1099.62,534.633 1100.32,549.966 1100.32,549.966 C1100.42,552.252 1100.34,555.082 1099.96,556.786 C1099.96,556.786 1097.31,568.916 1097.31,568.916 C1096.4,573.069 1095.5,577.082 1093.44,580.439 C1093.44,580.439 1085.86,592.834 1085.86,592.834 C1085.55,592.929 1084.44,593.114 1084.5,593.42 Z M1056.18,543.089 C1056.18,543.089 1061.95,538.219 1061.95,538.219 C1068.69,532.529 1067.88,525.192 1063.1,518.97 C1058.05,512.39 1054.58,508.404 1046.89,504.823 C1032.03,497.912 1016.06,500.204 1005.09,513.825 C1005.2,517.409 1003.52,522.942 1005.48,526.395 C1005.48,526.395 1009.84,534.052 1009.84,534.052 C1018.87,549.932 1044.34,553.095 1056.18,543.089 Z " fill="rgb(253,104,3)"/>
<path d="M453.806,579.286 C452.071,577.37 453.532,574.531 453.555,572.444 C449.76,572.204 450.673,569.644 450.226,568.138 C447.74,559.755 449.349,552.751 450.132,545.062 C450.505,541.409 451.596,539.067 453.551,535.579 C453.551,535.579 459.915,524.221 459.915,524.221 C463.694,519.942 467.582,517.159 471.587,514.136 C472.219,514.857 472.976,514.561 472.922,514.291 C472.922,514.291 472.54,512.372 472.54,512.372 C474.393,511.444 476.048,510.066 478.222,508.983 C478.222,508.983 485.962,505.124 485.962,505.124 C488.289,502.331 492.914,503.583 495.113,502.329 C498.293,500.514 504.836,499.858 507.221,498.339 C511.976,495.309 517.732,496.138 522.392,495.383 C527.503,494.556 532.878,493.732 537.547,493.658 C537.547,493.658 542.872,490.505 542.872,490.505 C543.908,489.892 548.748,483.908 546.136,478.997 C545.659,478.101 546.577,476.818 546.644,476.295 C546.52,477.264 541.025,467.292 538.544,466.122 C536.84,465.319 534.041,462.846 532.086,462.506 C515.924,459.696 513.312,457.902 495.057,462.456 C489.891,463.745 485.25,466.38 479.28,466.599 C476.235,464.252 476.019,458.922 479.146,455.424 C476.424,451.384 479.59,448.46 480.964,444.709 C480.964,444.709 494.821,431.053 494.821,431.053 C497.626,428.289 513.991,425.689 512.792,424.484 C512.561,424.252 511.728,423.875 512.067,422.776 C514.03,423.956 516.239,422.541 517.851,422.531 C517.851,422.531 536.884,422.415 536.884,422.415 C541.33,422.388 545.171,425.266 549.928,425.356 C549.928,425.356 556.427,428.502 556.427,428.502 C560.501,428.86 564.859,430.032 567.29,433.763 C571.535,440.275 577.518,439.759 580.509,446.042 C580.509,446.042 585.229,451.276 585.229,451.276 C585.229,451.276 591.403,469.691 591.403,469.691 C591.403,469.691 592.246,479.927 592.246,479.927 C594.306,486.859 594.082,492.9 593.441,500.116 C592.992,505.176 595.451,510.419 592.96,515.537 C590.938,519.69 594.064,524.927 592.703,529.57 C591.427,533.918 592.362,539.007 592.645,543.329 C592.645,543.329 593.456,555.73 593.456,555.73 C593.456,555.73 594.948,572.742 594.948,572.742 C596.648,577.584 597.72,581.932 600.063,586.044 C602.385,590.121 600.416,594.748 597.726,599.024 C596.612,597.952 596.289,598.5 595.38,598.946 C594.601,599.329 592.622,599.482 593.665,601.751 C592.534,601.182 590.213,602.667 589.042,602.582 C589.042,602.582 579.881,601.915 579.881,601.915 C573.881,601.479 568.066,596.274 565.108,590.949 C564.126,589.182 563.349,585.077 561.149,585.782 C556.05,587.417 552.65,591.619 547.26,592.308 C543.298,595.098 538.906,598.355 533.468,598.181 C528.176,602.403 521.689,603.243 515.505,603.467 C507.046,605.037 498.657,603.746 490.011,602.742 C486.77,603.649 483.914,602.507 482.176,600.36 C477.875,598.687 472.738,598.183 469.47,595.323 C466.254,592.508 463.648,588.77 459.797,586.256 C457.286,584.617 456.084,581.801 453.806,579.286 Z M507.872,566.461 C533.284,570.952 558.094,546.383 550.763,530.982 C549.235,527.771 543.113,525.977 539.639,525.454 C523.296,522.996 498.853,531.435 494.937,545.941 C493.582,550.959 493.673,555.419 496.555,559.815 C498.747,563.158 503.119,565.621 507.872,566.461 Z " fill="rgb(253,105,3)"/>
<path d="M1194.48,644.585 C1189.17,646.825 1185.02,646.913 1180.31,647.476 C1168.98,648.829 1157.08,648.069 1147.49,643.03 C1144.81,641.619 1141.12,640.843 1138.45,638.551 C1134.57,635.218 1129.64,634.995 1125.37,630.429 C1125.37,630.429 1118.29,622.859 1118.29,622.859 C1118.4,622.282 1118.99,620.914 1118.64,620.541 C1118.3,620.169 1116.84,620.494 1117.14,618.863 C1114.63,616.235 1113.23,612.861 1112.46,609.862 C1105.29,602.814 1105.23,584.543 1106.39,572.332 C1106.98,566.181 1106.75,559.62 1109.07,560.595 C1109.53,560.789 1110.62,559.523 1109.77,561.614 C1110.23,553.65 1113.23,544.492 1116.05,540.847 C1117.19,539.376 1119.45,538.345 1119.5,536.23 C1119.57,533.252 1126.13,526.538 1131.01,522.046 C1139.72,514.037 1149.89,510.38 1160.95,507.963 C1160.95,507.963 1178.5,507.354 1178.5,507.354 C1192.18,506.879 1199.6,513.196 1209.79,518.247 C1209.97,518.679 1210.48,520.048 1210.96,520.436 C1211.42,520.808 1212.25,520.631 1213.19,520.511 C1213.19,520.511 1218.23,524.179 1218.23,524.179 C1221.55,526.592 1223.67,530.496 1226.01,534.41 C1226.01,534.41 1231.12,542.986 1231.12,542.986 C1231.35,543.367 1231.1,544.951 1231.1,545.351 C1231.1,545.951 1232.45,546.417 1233.5,546.713 C1234.47,555.326 1239.87,562.17 1239.23,569.156 C1238.65,575.581 1239.74,581.492 1238.11,587.356 C1238.11,587.356 1232.89,606.142 1232.89,606.142 C1232.66,606.966 1231.97,607.176 1231.4,607.066 C1230.79,606.948 1231.54,609.516 1231.22,610.142 C1225.52,621.398 1217.25,630.563 1206.89,638.233 C1204.87,639.729 1199.96,640.935 1198.25,642.886 C1197.94,643.249 1195.69,642.657 1195.48,642.989 C1195.48,642.989 1194.48,644.585 1194.48,644.585 Z M1203.83,566.255 C1205.05,564.573 1205.85,562.628 1205.65,561.508 C1203.05,546.531 1190.32,537.598 1176.39,535.58 C1167.67,534.319 1155.06,538.148 1151.49,544.441 C1145.74,554.576 1155.73,574.13 1175.59,577.557 C1185.86,579.328 1197.62,574.665 1203.83,566.255 Z " fill="rgb(253,104,2)"/>
<path d="M382.517,562.945 C371.138,576.428 353.84,583.757 338.9,577.842 C330.415,574.483 327.623,564.368 332.076,555.878 C342.462,536.076 379.326,532.713 386.964,541.528 C391.075,546.274 386.85,557.81 382.517,562.945 Z " fill="rgb(255,255,255)"/>
<path d="M1056.18,543.089 C1044.34,553.095 1018.87,549.932 1009.84,534.052 C1009.84,534.052 1005.48,526.395 1005.48,526.395 C1003.52,522.942 1005.2,517.409 1005.09,513.825 C1016.06,500.204 1032.03,497.912 1046.89,504.823 C1054.58,508.404 1058.05,512.39 1063.1,518.97 C1067.88,525.192 1068.69,532.529 1061.95,538.219 C1061.95,538.219 1056.18,543.089 1056.18,543.089 Z " fill="rgb(255,255,255)"/>
<path d="M507.872,566.461 C503.119,565.621 498.747,563.158 496.555,559.815 C493.673,555.419 493.582,550.959 494.937,545.941 C498.853,531.435 523.296,522.996 539.639,525.454 C543.113,525.977 549.235,527.771 550.763,530.982 C558.094,546.383 533.284,570.952 507.872,566.461 Z " fill="rgb(255,255,255)"/>
<path d="M1203.83,566.255 C1197.62,574.665 1185.86,579.328 1175.59,577.557 C1155.73,574.13 1145.74,554.576 1151.49,544.441 C1155.06,538.148 1167.67,534.319 1176.39,535.58 C1190.32,537.598 1203.05,546.531 1205.65,561.508 C1205.85,562.628 1205.05,564.573 1203.83,566.255 Z " fill="rgb(255,255,255)"/>
</svg>